<svg width="161" height="161" viewBox="0 0 161 161" fill="none" xmlns="http://www.w3.org/2000/svg">
<path d="M85.5061 72.7687C85.5061 81.5901 83.5355 106.386 87.9546 115.199C92.3821 124.012 105.631 137.236 110.05 137.236C114.469 137.236 127.073 137.764 135.911 137.764C146.317 137.764 149.738 119.71 150.669 98.21C151.575 77.1291 146.829 49.9352 141.412 37.2732C138.225 29.8186 133.454 24.3093 111.576 23.7643C92.835 23.2947 42.5979 31.9904 38.0363 33.1056C20.2256 37.4409 31.5459 42.7992 31.4369 42.8411C25.6426 44.7614 22.5148 51.0085 24.4519 56.7777C26.3805 62.5552 32.636 65.6662 38.422 63.7543C38.9419 63.5782 65.8675 57.7084 87.9546 53.2977C99.8703 50.8659 106.386 52.6353 105.958 65.2889C105.43 80.7013 95.8034 78.6636 85.5061 72.7687Z" fill="#EF9645"/>
<path d="M101.422 84.4244C101.422 84.4244 113.077 70.9993 110.453 62.6475C107.82 54.304 41.6 41.2563 27.0849 53.1887C16.8211 61.6244 23.2108 76.5505 36.5185 74.0349C41.3904 73.1125 55.545 69.2719 69.8841 65.465C72.4081 64.7857 82.7808 66.2532 87.1412 66.4544C100.172 67.0498 101.422 84.4244 101.422 84.4244Z" fill="#EF9645"/>
<path d="M102.059 82.8815C102.059 82.8815 113.689 62.2617 109.74 54.5471C105.799 46.8326 46.1198 42.7572 29.9443 51.847C16.7121 59.2849 23.8314 73.8755 35.8393 71.3431C41.7845 70.0937 55.8217 65.1379 68.534 62.6055C71.8966 61.9263 80.3239 62.7732 86.5962 63.6369C99.384 65.3979 102.059 82.8815 102.059 82.8815Z" fill="#F9CA55"/>
<path d="M102.403 77.9508C102.403 77.9508 113.622 64.5174 110.78 56.1739C107.929 47.8304 37.4241 34.7072 21.6931 46.6397C10.5656 55.0754 18.9678 69.4983 31.9652 66.9743C36.4179 66.1106 49.3733 61.4399 67.0163 58.4044C71.8966 57.5575 79.8208 59.0753 86.9148 59.9725C100.952 61.7418 102.403 77.9508 102.403 77.9508Z" fill="#EF9645"/>
<path d="M103.166 76.1731C103.166 76.1731 114.293 55.7882 110.017 48.0736C105.74 40.3506 41.5749 36.1999 24.0494 45.2896C9.71031 52.7275 19.9657 66.815 32.9798 64.2826C39.7972 62.9577 53.0378 58.1948 66.1693 55.545C69.5235 54.8658 80.1562 55.8804 87.9043 57.0544C101.732 59.1507 103.166 76.1731 103.166 76.1731Z" fill="#F9CA55"/>
<path d="M32.0491 33.5081C15.9323 36.9629 15.8904 49.0463 22.7496 54.5974C30.0869 60.5343 51.5284 55.9139 64.8277 53.021C92.6253 46.9667 104.088 56.8867 104.759 75.5442C105.111 85.3887 113.715 46.8661 110.922 37.4157C108.13 27.957 69.3139 29.4915 63.3518 29.7263C58.9327 29.9024 32.0491 33.5081 32.0491 33.5081Z" fill="#EF9645"/>
<path d="M32.7199 33.919C16.4103 38.2962 16.9134 48.9792 25.4749 53.4403C30.917 56.2745 43.5874 54.1111 62.4797 51.193C91.5017 46.7152 106.126 50.17 108.549 72.1146C109.631 81.9171 120.641 56.2662 116.18 47.4782C111.711 38.6819 107.468 25.7432 103.074 25.2904C96.5497 24.6112 60.2744 26.6321 56.568 27.6383C42.0948 31.5795 32.7199 33.919 32.7199 33.919Z" fill="#F9CA55"/>
<path d="M84.3238 72.0978C84.3238 80.9109 83.5355 106.377 87.9546 115.199C92.3821 124.012 105.665 136.724 110.05 137.236C113.103 137.596 124.532 137.16 136.867 136.246C147.248 135.475 147.885 120.046 148.816 98.5454C149.73 77.4645 144.674 52.0399 139.257 39.3863C136.07 31.9317 132.464 26.0619 110.587 25.5168C91.8455 25.0473 86.571 25.9445 82.1352 27.4706C68.3495 32.1916 31.5459 42.7992 31.4369 42.8411C25.6426 44.7614 22.5148 51.0085 24.4519 56.7777C26.3805 62.5552 33.5752 65.8339 39.554 64.618C44.384 63.6369 47.6376 61.2555 65.8339 54.8742C67.5194 54.2201 80.827 53.021 92.793 52.5179C101.086 52.1657 104.507 60.4421 105.539 67.2511C107.686 81.3637 94.621 77.9928 84.3238 72.0978Z" fill="#EF9645"/>
<path d="M110.05 137.236C114.469 137.236 100.642 90.0678 96.6671 83.0827C86.571 65.3392 51.3104 63.486 44.4259 63.486C37.5415 63.486 29.5418 65.7333 28.8123 72.559C28.1247 78.9739 32.0239 82.806 39.7049 83.8709C85.1204 90.16 73.0454 137.236 110.05 137.236Z" fill="#EF9645"/>
<path d="M81.0786 26.9172C72.6261 27.848 60.7775 29.4831 58.0858 30.6655C50.3293 34.0448 31.4956 42.8075 31.4369 42.8327C25.2317 45.9605 23.6385 50.0442 25.5671 55.8217C27.4958 61.5909 35.093 63.8382 42.078 61.1716C46.7655 59.3771 62.0353 52.4592 64.9954 51.6122C66.9492 50.9665 83.1079 48.8786 95.4009 49.1469C103.157 49.3146 107.367 59.4861 107.543 65.5991C108.038 82.437 97.1283 82.11 86.8394 76.215L84.7011 75.0327C70.2866 66.7311 50.9917 65.901 45.7844 65.901C38.8916 65.901 33.1224 66.4041 30.7326 72.8441C28.4853 78.8984 32.0155 82.806 39.7049 83.8709C85.1204 90.16 73.0454 137.236 110.05 137.236C113.111 137.596 118.93 137.001 131.265 136.079C141.638 135.307 144.934 119.584 145.864 98.0758C146.778 77.0033 144.674 52.0399 139.257 39.3863C136.07 31.9317 132.464 26.0702 110.587 25.5168C91.8455 25.0472 85.7409 26.4057 81.0786 26.9172Z" fill="url(#paint0_linear_1_14)"/>
<defs>
<linearGradient id="paint0_linear_1_14" x1="85.4335" y1="25.4197" x2="85.4335" y2="137.342" gradientUnits="userSpaceOnUse">
<stop stop-color="#FFDC5D"/>
<stop offset="0.494792" stop-color="#FCD549"/>
<stop offset="1" stop-color="#F9CF37"/>
</linearGradient>
</defs>
</svg>
