<svg width="155" height="155" viewBox="0 0 155 155" fill="none" xmlns="http://www.w3.org/2000/svg">
<path d="M47.4203 28.5378C47.4203 23.4357 51.5537 19.3023 56.6477 19.3023H56.9141C62.0081 19.3023 66.1414 23.4357 66.1414 28.5378V20.4487C66.1414 15.6776 70.0003 11.8107 74.7633 11.8107H76.2326C80.9956 11.8107 84.8544 15.6776 84.8544 20.4487V24.9211C84.8544 19.7463 89.0443 15.5565 94.2109 15.5565C99.3857 15.5565 103.567 19.7463 103.567 24.9211V59.9333C103.567 56.1148 106.667 53.0148 110.478 53.0148H111.632C115.451 53.0148 118.543 56.1148 118.543 59.9333V96.6732C118.543 100.484 115.451 103.584 111.632 103.584H111.059V107.329H103.01C100.411 120.157 89.0846 129.804 75.4979 129.804C59.9899 129.804 47.4203 117.235 47.4203 101.711V79.2357C47.4203 78.4284 47.4768 77.6211 47.5414 76.8299C47.493 76.4263 47.4203 76.0388 47.4203 75.619V28.5378Z" fill="#EF9645"/>
<path d="M32.4531 39.9044C32.4531 39.9044 32.4531 32.4128 39.9367 32.4128C47.4203 32.4128 47.4203 39.9044 47.4203 39.9044V74.6906C47.4203 74.1417 51.1661 73.6412 51.1661 73.1972V24.9211C51.1661 24.9211 51.1661 17.4294 58.6497 17.4294C66.1414 17.4294 66.1414 24.9211 66.1414 24.9211V70.3313C66.1414 70.2263 69.8792 70.1375 69.8792 70.0729V17.4294C69.8792 17.4294 69.8792 9.93777 77.3708 9.93777C84.8544 9.93777 84.8544 17.4294 84.8544 17.4294V70.0649C84.8544 70.1294 88.6003 70.2667 88.6003 70.3716V21.1753C88.6003 21.1753 88.6003 13.6836 96.0839 13.6836C103.567 13.6836 103.567 21.1753 103.567 21.1753V81.1086C81.1086 81.1086 66.1414 99.8378 66.1414 118.567C66.1414 122.313 69.8792 122.313 69.8792 122.313C69.8792 99.8378 84.8544 84.8544 107.313 84.8544V58.6336C107.313 58.6336 107.313 51.1419 114.797 51.1419C122.289 51.1419 122.289 58.6336 122.289 58.6336V99.8378C122.289 124.662 102.171 144.788 77.3708 144.788C52.5628 144.788 32.4531 124.662 32.4531 99.8378V39.9044Z" fill="url(#paint0_linear_1_26)"/>
<defs>
<linearGradient id="paint0_linear_1_26" x1="77.3708" y1="9.93777" x2="77.3708" y2="144.788" gradientUnits="userSpaceOnUse">
<stop stop-color="#FFDC5D"/>
<stop offset="0.494792" stop-color="#FCD549"/>
<stop offset="1" stop-color="#F9CF37"/>
</linearGradient>
</defs>
</svg>
