<svg width="146" height="146" viewBox="0 0 146 146" fill="none" xmlns="http://www.w3.org/2000/svg">
<path d="M43.9217 73.4867L43.7544 56.0579V35.1236C43.7544 31.7398 43.6251 27.2381 46.7808 24.0063C42.667 26.8199 39.9675 31.5649 39.9675 36.941V38.6824L39.6481 39.5265V59.2136L25.8009 59.1604C22.9874 59.1604 20.3411 57.3126 18.8887 56.6054C20.9343 60.4227 24.896 63.0461 29.5118 63.0461L30.4547 63.3503H39.6481L39.7013 73.4867C39.7013 77.6614 41.1766 81.0756 44.0813 83.6306L39.3211 83.6839L22.6148 83.6306C19.9913 83.6306 17.6341 82.2162 15.8471 81.3037C18.2424 84.9385 22.668 87.4099 27.778 87.4099H29.5878L32.9717 88.0334L60.7345 87.927C63.8218 87.927 66.1943 89.3718 68.0953 91.5161C69.7302 93.364 70.3613 95.1814 70.3613 97.8504C70.3613 103.614 65.9281 107.88 60.1946 107.88L28.7742 107.941C25.953 107.941 23.9607 106.359 22.3334 105.31C24.379 109.135 28.3483 111.766 32.9717 111.766H39.5036L40.2412 112.017H61.2059C68.0953 112.017 70.848 118.602 70.848 121.864C70.848 127.841 66.6885 132.647 61.2059 132.647H70.3613C70.3613 132.647 71.0837 132.008 71.4411 131.978C74.498 128.906 74.9619 124.473 74.9619 121.591C74.9619 116.04 72.0115 112.245 67.8216 109.979C72.0191 107.614 74.8022 103.318 74.8022 98.0481C74.8022 92.7708 72.2472 85.2275 63.2286 83.9272C63.8066 83.4405 64.9928 82.1706 65.4415 81.5699C67.2817 79.1214 67.9888 76.0569 67.9888 73.4867L67.8748 69.6085V63.5708C68.8101 65.4338 69.791 66.2779 71.1218 67.7607C76.5511 73.7756 85.2959 76.726 97.6831 76.726C98.6336 76.726 99.6222 75.6234 99.6222 74.6653C99.6222 73.6996 98.5272 72.6502 97.5691 72.6502C83.8587 72.6502 75.6691 69.2663 71.3955 61.5025C69.1447 57.4115 68.0421 52.3623 68.0421 45.7847C68.0421 45.5794 67.9356 43.8304 67.9356 43.8304C67.9356 42.8723 66.7798 41.7621 65.8293 41.7621C64.8711 41.7621 63.9358 42.705 63.9358 43.6631V66.0726L63.875 73.4867C63.875 79.2506 59.4418 83.6306 53.7082 83.6306C47.9747 83.6306 43.9217 79.2506 43.9217 73.4867Z" fill="#EF9645"/>
<path d="M74.5817 121.781C74.5817 116.648 71.7073 112.245 67.5098 109.971C71.7073 107.614 74.5817 103.158 74.5817 97.9797V97.7136C74.5817 93.6986 72.8175 90.1626 70.0876 87.6609C70.004 87.5848 69.9431 87.486 69.8519 87.4099H69.8063C69.0763 86.7636 68.255 86.2161 67.4033 85.7294C67.1524 85.5925 66.8786 85.4937 66.6125 85.3644C65.9433 85.045 65.2514 84.7561 64.5214 84.5431C63.9206 84.3682 63.3275 84.1781 62.6964 84.0793C63.2743 83.585 63.799 83.0527 64.2856 82.4748C64.4909 82.2391 64.6582 81.9653 64.8483 81.7068C65.1449 81.3038 65.4643 80.916 65.7152 80.4749C66.9319 78.4218 67.6543 76.0493 67.6543 73.4867V62.4682C68.5896 64.3313 69.7834 65.9433 71.1218 67.4262C76.5435 73.4411 85.2579 76.3991 97.6451 76.3991C98.5956 76.3991 99.3713 75.6158 99.3713 74.6577C99.3713 73.6996 98.5956 72.9164 97.6451 72.9164C83.9272 72.9164 75.3953 69.4032 71.1218 61.6394C68.8633 57.556 67.7683 52.3091 67.7683 45.7315C67.7683 45.5262 67.6543 43.9065 67.6543 43.9065C67.6543 42.9407 66.8786 42.1651 65.9281 42.1651C64.97 42.1651 64.1944 42.9407 64.1944 43.9065V73.4867C64.1944 79.2506 59.5482 83.9272 53.8147 83.9272C48.0735 83.9272 43.4274 79.2506 43.4274 73.4867V35.1997C43.4274 31.8158 43.6251 27.2381 46.7732 24.0064C47.8758 22.8733 49.3206 21.9 51.2673 21.208L70.2017 15.4365C71.9734 14.889 80.0947 12.8967 81.7828 13.2541C107.188 13.2541 133.605 43.5339 133.605 79.3951C133.613 114.116 105.515 132.647 71.1598 132.647H70.369C70.3994 132.617 70.4222 132.579 70.4602 132.541C73.5095 129.476 74.5817 126.282 74.5817 122.64V121.781Z" fill="url(#paint0_linear_1_54)"/>
<path d="M29.5878 122.686V121.735C29.5878 116.23 34.0287 111.766 39.5037 111.766H61.2136C66.6886 111.766 71.1218 116.23 71.1218 121.735V122.686C71.1218 128.191 66.6809 132.647 61.2059 132.647H39.5037C34.0287 132.647 29.5878 128.191 29.5878 122.686ZM40.9256 87.4099H60.7345C63.8218 87.4099 66.5669 88.7863 68.4679 90.9382C70.1028 92.7784 71.1218 95.1814 71.1218 97.8504C71.1218 103.614 66.4756 108.291 60.7345 108.291H29.5878C26.7591 108.291 24.2117 107.143 22.3334 105.303C20.4096 103.409 19.2005 100.77 19.2005 97.8504C19.2005 92.0789 23.8543 87.4099 29.5878 87.4099H40.9256ZM39.9675 73.4867C39.9675 77.6614 41.8457 81.3722 44.7505 83.9272H22.668C20.0446 83.9272 17.6797 82.9158 15.8471 81.3038C13.6799 79.3951 12.2807 76.6196 12.2807 73.4867C12.2807 67.7151 16.9345 63.0462 22.668 63.0462H39.9751V73.4867H39.9675ZM26.1051 59.5634C23.2916 59.5634 20.7518 58.4304 18.8888 56.6054C16.9497 54.712 15.7406 52.0809 15.7406 49.1457V49.1001C15.7406 43.3438 20.3792 38.6824 26.1051 38.6824H39.9675V59.5634H26.1051Z" fill="url(#paint1_linear_1_54)"/>
<defs>
<linearGradient id="paint0_linear_1_54" x1="88.5163" y1="13.2115" x2="88.5163" y2="132.647" gradientUnits="userSpaceOnUse">
<stop stop-color="#FFDC5D"/>
<stop offset="0.494792" stop-color="#FCD549"/>
<stop offset="1" stop-color="#F9CF37"/>
</linearGradient>
<linearGradient id="paint1_linear_1_54" x1="41.7013" y1="38.6824" x2="41.7013" y2="132.647" gradientUnits="userSpaceOnUse">
<stop stop-color="#FFDC5D"/>
<stop offset="0.494792" stop-color="#FCD549"/>
<stop offset="1" stop-color="#F9CF37"/>
</linearGradient>
</defs>
</svg>
