<svg width="202" height="202" viewBox="0 0 202 202" fill="none" xmlns="http://www.w3.org/2000/svg">
<path d="M124.356 147.639C124.356 147.639 124.903 138.959 115.308 137.949L94.4771 137.865L94.456 137.234H89.648C84.8821 137.234 80.8 134.372 78.9799 130.29C80.6317 131.5 114.887 131.71 114.887 131.71C120.411 131.71 124.356 127.765 124.356 122.252C124.356 118.475 122.778 115.929 119.685 114.235C117.055 116.518 113.657 117.896 109.89 117.896C103.315 117.896 99.1694 113.993 98.7696 112.268C98.7696 112.268 98.4119 111.984 98.3487 111.858C96.8127 110.016 95.6659 107.839 95.1715 105.408V105.303L94.4034 103.998V69.4059C94.4034 62.883 96.8337 61.631 96.7811 61.7257L96.8337 61.631C98.3593 58.6747 100.705 56.2549 103.588 54.6136C103.43 54.7399 100.421 58.0224 100.421 62.3254C100.421 66.6284 100.19 102.273 100.19 102.273C100.19 107.786 104.356 111.879 109.89 111.879C115.414 111.879 119.506 107.786 119.506 102.273L119.422 74.8031C119.422 73.4249 121.011 71.8573 122.399 71.8573C123.778 71.8573 125.293 73.4249 125.293 74.8031C125.293 74.8031 124.945 82.5885 131.542 89.0273C137.739 95.0557 150.585 99.4008 159.938 99.4008C161.316 99.4008 162.831 100.895 162.831 102.273C162.831 103.651 161.316 105.177 159.938 105.177C144.872 105.177 132.278 100.474 125.45 91.4471V102.273C125.45 107.27 124.219 108.628 123.651 109.638C123.651 109.627 130.448 113.141 130.448 122.252C130.448 123.43 130.216 130.374 124.114 134.667C131.226 140.285 130.448 147.523 130.448 147.523C130.448 151.184 128.807 155.351 126.282 157.066C125.829 157.129 125.377 157.202 124.903 157.202H115.308C120.611 157.202 124.356 152.92 124.356 147.639Z" fill="#EF9645"/>
<path d="M94.8663 69.4165V102.273C94.8663 103.315 94.9715 104.325 95.1714 105.303L93.7827 105.671L31.4047 122.01C31.4047 122.01 21.6098 124.093 19.5372 114.33C17.454 104.556 27.2384 102.483 27.2384 102.483L85.1451 87.0178C85.2608 84.7874 85.4607 82.6306 85.6817 80.4949L33.067 70.2055C33.067 70.2055 23.1037 69.2692 24.0401 59.3165C24.9764 49.3848 34.9397 50.3211 34.9397 50.3211L90.8053 60.6316L96.7811 61.7362C95.6028 64.0508 94.8663 66.639 94.8663 69.4165ZM84.861 147.639V146.797C84.861 141.505 89.1535 137.234 94.456 137.234H115.308C120.611 137.234 124.903 141.505 124.903 146.797V147.639C124.903 152.92 120.611 157.202 115.308 157.202H94.456C89.1535 157.202 84.861 152.92 84.861 147.639ZM109.89 117.255C113.657 117.255 117.055 115.824 119.685 113.541C122.778 115.235 124.903 118.475 124.903 122.252C124.903 127.765 120.411 132.236 114.887 132.236H84.861C82.6517 132.236 80.6317 131.5 78.9799 130.29C76.4864 128.48 74.8557 125.566 74.8557 122.252C74.8557 116.739 79.3376 112.268 84.861 112.268H98.7696C101.516 115.308 105.45 117.255 109.89 117.255Z" fill="url(#paint0_linear_1_37)"/>
<path d="M129.901 146.913C129.901 141.789 127.271 137.297 123.294 134.677C124.209 134.056 125.019 133.32 125.777 132.52C126.008 132.278 126.197 132.015 126.418 131.752C126.913 131.153 127.365 130.532 127.765 129.869C127.954 129.533 128.133 129.206 128.302 128.859C128.649 128.165 128.933 127.439 129.164 126.692C129.269 126.355 129.396 126.04 129.469 125.692C129.732 124.577 129.901 123.43 129.901 122.252C129.901 121.074 129.722 119.948 129.459 118.854C129.364 118.465 129.248 118.107 129.133 117.739C128.912 117.055 128.638 116.392 128.323 115.761C128.123 115.35 127.944 114.94 127.702 114.561C127.207 113.741 126.639 112.973 125.997 112.268C125.072 111.258 124.062 110.343 122.904 109.617L122.883 109.627C123.462 108.628 124.903 107.27 124.903 102.273V89.606C131.731 98.6433 144.872 104.777 159.938 104.777C161.316 104.777 162.431 103.651 162.431 102.273C162.431 100.895 161.316 99.7796 159.938 99.7796C140.621 99.7796 124.903 88.859 124.903 75.4344V74.8137C124.903 73.4354 123.778 72.3097 122.399 72.3097C121.021 72.3097 119.895 73.4354 119.895 74.8137V102.273C119.895 107.786 115.414 112.268 109.89 112.268C104.356 112.268 99.8743 107.786 99.8743 102.273V62.3254C99.8743 62.1676 99.9164 62.0203 99.9269 61.8625C99.9374 61.4943 99.9795 61.1366 100.032 60.7789C100.085 60.4738 100.137 60.1687 100.221 59.8741C100.306 59.5479 100.4 59.2428 100.516 58.9377C100.621 58.6326 100.747 58.3275 100.884 58.0329C101.021 57.7489 101.179 57.4753 101.337 57.2123C101.505 56.9282 101.673 56.6652 101.873 56.4022C102.063 56.1497 102.273 55.8972 102.494 55.6552C102.694 55.4238 102.915 55.2028 103.146 54.9924C103.294 54.8662 103.441 54.7399 103.599 54.6242L103.914 54.3612C104.167 54.1718 104.43 54.0035 104.693 53.8351C104.977 53.6668 105.261 53.509 105.556 53.3722C105.861 53.2144 106.176 53.0881 106.502 52.9724C106.66 52.9093 106.807 52.8251 106.965 52.7725L124.903 47.3438C126.576 46.8282 134.267 44.9555 135.866 45.2922C159.938 45.2922 184.956 68.7431 184.956 97.2862C184.956 129.922 158.78 156.424 126.229 157.139L126.282 157.066C128.512 154.488 129.901 151.195 129.901 147.523V146.913Z" fill="url(#paint1_linear_1_37)"/>
<defs>
<linearGradient id="paint0_linear_1_37" x1="72.0748" y1="50.2976" x2="72.0748" y2="157.202" gradientUnits="userSpaceOnUse">
<stop stop-color="#FFDC5D"/>
<stop offset="0.494792" stop-color="#FCD549"/>
<stop offset="1" stop-color="#F9CF37"/>
</linearGradient>
<linearGradient id="paint1_linear_1_37" x1="142.415" y1="45.252" x2="142.415" y2="157.139" gradientUnits="userSpaceOnUse">
<stop stop-color="#FFDC5D"/>
<stop offset="0.494792" stop-color="#FCD549"/>
<stop offset="1" stop-color="#F9CF37"/>
</linearGradient>
</defs>
</svg>
