<svg width="149" height="149" viewBox="0 0 149 149" fill="none" xmlns="http://www.w3.org/2000/svg">
<path d="M62.2463 69.5644C63.2164 73.1419 61.0667 76.8204 57.4426 77.7826L56.5657 78.0155C52.9416 78.97 49.2166 76.8436 48.2465 73.2661L35.1237 24.9187C33.4552 19.1139 34.6037 13.6583 39.648 12.1838L41.2311 11.8191C44.8552 10.8568 46.9738 13.3169 47.9439 16.8944L62.2463 69.5644ZM86.7692 72.7617C86.0863 76.5643 82.4079 79.1097 78.5509 78.4345L78.2405 78.3802C74.3914 77.7128 71.8149 74.0809 72.4901 70.2783L81.9888 17.1505C82.664 13.3479 84.5032 10.7326 88.3601 11.4L89.2138 11.6561C98.9996 13.9843 94.9409 27.0062 96.2525 19.6338L86.7692 72.7617Z" fill="#EF9645"/>
<path d="M49.1234 74.8337C50.0392 78.2561 48.0137 81.7793 44.5991 82.695L43.3186 83.0442C39.8963 83.96 36.3886 81.9267 35.4729 78.5044L24.1504 36.1946C23.2347 32.7722 25.2679 29.2568 28.6825 28.3333L29.9552 27.9918C33.3775 27.0761 36.8853 29.1016 37.8087 32.5239L49.1234 74.8337ZM65.2185 66.6232C66.1653 70.1619 64.07 73.8016 60.5312 74.7483L59.6776 74.9812C56.1466 75.9279 52.5147 73.8249 51.568 70.2861L37.6147 18.1516C36.668 14.6129 38.7633 10.9732 42.302 10.0265L43.1557 9.79365C46.6867 8.84687 50.3185 10.9499 51.2731 14.4887L65.2185 66.6232ZM82.8657 70.8837C82.2294 74.5 78.7915 76.9057 75.1907 76.2694L74.3215 76.1142C70.7129 75.4778 68.3072 72.04 68.9435 68.4236L78.3026 15.2803C78.939 11.6639 82.3768 9.25818 85.9776 9.89453L86.8468 10.042C90.4554 10.6861 92.8611 14.124 92.2248 17.7403L82.8657 70.8837ZM100.187 74.3914C99.5972 77.7671 96.3921 80.0177 93.0241 79.4201L91.2858 79.1097C87.9255 78.5199 85.6828 75.3071 86.2725 71.9391L95.1737 21.4032C95.7635 18.0352 98.9686 15.7769 102.329 16.3745L104.075 16.6849C107.435 17.2747 109.686 20.4875 109.088 23.8555L100.187 74.3914ZM111.998 104.284C110.151 107.482 106.069 108.584 102.872 106.737L102.197 106.341C99.0074 104.494 97.9132 100.404 99.7602 97.207L119.58 62.8128C121.427 59.6155 125.509 58.5135 128.707 60.3683L129.382 60.7563C132.571 62.6033 133.665 66.693 131.818 69.8903L111.998 104.284Z" fill="url(#paint0_linear_1_49)"/>
<path d="M31.6237 64.1088C33.0361 69.3937 30.9718 82.4622 30.9718 92.3955C30.9718 102.337 38.4839 134.868 73.3825 134.868C108.281 134.868 110.485 105.728 115.785 97.1216C121.086 88.5153 112.844 74.5543 108.723 81.6396C104.595 88.7171 98.3555 85.7526 100.474 73.2273C102.6 60.7097 89.4466 53.8883 87.6229 64.2252C86.0786 72.9945 82.5476 70.4335 84.6118 60.9969C86.6683 51.5525 72.1874 48.8906 69.8438 61.7264C68.1287 71.163 64.7141 64.8848 63.3017 59.4758C61.8971 54.0591 47.4627 53.5857 49.3407 61.9825C52.0336 73.9723 49.3252 76.378 45.4062 61.7341C42.9151 52.4371 31.6237 64.1088 31.6237 64.1088Z" fill="url(#paint1_linear_1_49)"/>
<path d="M103.276 85.3724C103.353 85.3646 103.439 85.3413 103.516 85.3336C102.143 85.093 101.002 83.7815 100.435 81.4223C93.6605 82.2992 84.2238 83.9444 76.9135 91.1073C67.8804 99.9464 66.3438 109.507 66.4137 115.902C66.4757 121.063 69.285 123.499 70.1076 115.863C71.1708 105.969 78.4035 87.4056 103.276 85.3724Z" fill="#EF9645"/>
<defs>
<linearGradient id="paint0_linear_1_49" x1="78.3237" y1="9.56677" x2="78.3237" y2="107.633" gradientUnits="userSpaceOnUse">
<stop stop-color="#FFDC5D"/>
<stop offset="0.494792" stop-color="#FCD549"/>
<stop offset="1" stop-color="#F9CF37"/>
</linearGradient>
<linearGradient id="paint1_linear_1_49" x1="74.2402" y1="52.9909" x2="74.2402" y2="134.868" gradientUnits="userSpaceOnUse">
<stop stop-color="#FFDC5D"/>
<stop offset="0.494792" stop-color="#FCD549"/>
<stop offset="1" stop-color="#F9CF37"/>
</linearGradient>
</defs>
</svg>
